<svg xmlns="http://www.w3.org/2000/svg" width="113" height="143" viewBox="0 0 113 143" fill="none" role="img" aria-labelledby="a3tf0mthrgvson94ufo9r0781tcx2k40" class="logo-ralph-only"><title id="a3tf0mthrgvson94ufo9r0781tcx2k40">thoughtbot</title>
<g class="logo-signals">
<path d="M56.8173 48.1387C68.9143 48.1387 79.8708 52.515 86.624 59.1006L91.9628 51.3752C83.5288 43.7048 70.9138 38.8301 56.8173 38.8301C42.6834 38.8301 30.0385 43.7274 21.6045 51.4328L26.9383 59.1708C33.6866 52.545 44.6804 48.1387 56.8173 48.1387Z"></path>
<path d="M57.3906 28.3986C70.6106 28.3986 82.9392 32.2789 92.1053 39.3205C93.968 40.7534 95.6463 42.2764 97.1304 43.8746L102.477 36.1191C92.068 25.7634 75.7453 19.0925 57.3931 19.0925C38.5952 19.0925 21.9313 26.0865 11.5674 36.8756L16.9411 44.6687C18.6717 42.6992 20.5928 40.9076 22.6758 39.3205C31.8444 32.2789 44.173 28.3986 57.3931 28.3986H57.3906Z"></path>
<path d="M56.8166 9.46585C77.7958 9.46585 96.3398 17.2289 107.364 29.03L112.67 21.3496C99.8185 8.46384 79.5788 0.157227 56.8166 0.157227C34.0145 0.157227 13.7499 8.48889 0.898438 21.4072L6.20239 29.0976C17.2162 17.2589 35.795 9.46585 56.8166 9.46585Z"></path>
</g>
<path fill-rule="evenodd" clip-rule="evenodd" d="M5.91199 77.1272C5.91199 73.2612 9.04602 70.1272 12.912 70.1272H100.656C104.522 70.1272 107.656 73.2612 107.656 77.1272V135.146C107.656 139.011 104.522 142.146 100.656 142.146H12.912C9.04602 142.146 5.91199 139.011 5.91199 135.146V77.1272ZM79.0991 112.16C72.825 112.128 67.7627 106.989 67.7871 100.677C67.7871 94.2869 72.8494 89.1648 79.0991 89.1648C85.3948 89.1919 90.4789 94.3438 90.46 100.677C90.4547 106.996 85.38 112.125 79.0991 112.16ZM23.0371 100.677C23.0127 106.989 28.075 112.128 34.3491 112.16C40.63 112.125 45.7047 106.996 45.71 100.677C45.7289 94.3438 40.6448 89.1919 34.3491 89.1648C28.0994 89.1648 23.0371 94.2869 23.0371 100.677Z"></path>
<path d="M34.3631 106.116C31.3874 106.1 28.9864 103.663 28.998 100.669C28.998 97.6386 31.399 95.2092 34.3631 95.2092C37.3491 95.2221 39.7605 97.6656 39.7515 100.669C39.749 103.666 37.3421 106.099 34.3631 106.116Z"></path>
<path d="M79.1131 106.116C76.1374 106.1 73.7364 103.663 73.748 100.669C73.748 97.6386 76.149 95.2092 79.1131 95.2092C82.0991 95.2221 84.5105 97.6656 84.5015 100.669C84.499 103.666 82.0921 106.099 79.1131 106.116Z"></path>
</svg>